<?xml version="1.0" encoding="UTF-8" standalone="no"?>
<!-- Created with Inkscape (http://www.inkscape.org/) -->

<svg
   xmlns:dc="http://purl.org/dc/elements/1.1/"
   xmlns:cc="http://creativecommons.org/ns#"
   xmlns:rdf="http://www.w3.org/1999/02/22-rdf-syntax-ns#"
   xmlns:svg="http://www.w3.org/2000/svg"
   xmlns="http://www.w3.org/2000/svg"
   xmlns:xlink="http://www.w3.org/1999/xlink"
   xmlns:sodipodi="http://sodipodi.sourceforge.net/DTD/sodipodi-0.dtd"
   xmlns:inkscape="http://www.inkscape.org/namespaces/inkscape"
   width="210mm"
   height="297mm"
   viewBox="0 0 210 297"
   id="svg3518"
   version="1.1"
   inkscape:version="0.91 r13725"
   sodipodi:docname="sun.svg">
  <defs
     id="defs3">
    <linearGradient
       inkscape:collect="always"
       id="linearGradient4606">
      <stop
         style="stop-color:#ffffff;stop-opacity:1;"
         offset="0"
         id="stop4608" />
      <stop
         style="stop-color:#ffffff;stop-opacity:1"
         offset="1"
         id="stop4610" />
    </linearGradient>
    <radialGradient
       inkscape:collect="always"
       xlink:href="#linearGradient4606"
       id="radialGradient4612"
       cx="91.798172"
       cy="122.18435"
       fx="91.798172"
       fy="122.18435"
       r="52.412697"
       gradientUnits="userSpaceOnUse"
       gradientTransform="matrix(1.8352141,0.86810958,-0.42760126,0.90396746,-24.42495,-67.957199)" />
  </defs>
  <sodipodi:namedview
     inkscape:document-units="mm"
     id="base"
     pagecolor="#ffffff"
     bordercolor="#666666"
     borderopacity="1.0"
     inkscape:pageopacity="0.0"
     inkscape:pageshadow="2"
     inkscape:zoom="0.70710678"
     inkscape:cx="328.54918"
     inkscape:cy="568.3575"
     inkscape:current-layer="layer1"
     showgrid="false"
     inkscape:window-width="1360"
     inkscape:window-height="745"
     inkscape:window-x="-8"
     inkscape:window-y="-8"
     inkscape:window-maximized="1" />
  <metadata
     id="metadata4">
    <rdf:RDF>
      <cc:Work
         rdf:about="">
        <dc:format>image/svg+xml</dc:format>
        <dc:type
           rdf:resource="http://purl.org/dc/dcmitype/StillImage" />
      </cc:Work>
    </rdf:RDF>
  </metadata>
  <g
     inkscape:label="Layer 1"
     inkscape:groupmode="layer"
     id="layer1">
    <rect
       style="fill:#00ffff"
       id="rect3524"
       width="220.93968"
       height="305.20319"
       x="-4.8380952"
       y="-4.5746036" />
    <circle
       style="fill:url(#radialGradient4612);fill-opacity:1"
       id="path3526"
       cx="99.987297"
       cy="116.37778"
       r="52.412697" />
    <path
       style="fill:#ffffff"
       d="m 100.65234,17.562765 -5.5e-4,9.95e-4 c 2.8e-4,-5.07e-4 0,9.65e-4 0,0.002 0,0.0014 -3e-5,0.0027 0,0.004 l 5.5e-4,0 0,-0.0069 z m -0.016,0.100166 c -0.001,0.0047 -0.003,0.0092 -0.005,0.01388 -8.5e-4,0.0036 -10e-4,0.008 -0.003,0.01091 -2.7e-4,4.82e-4 -7.8e-4,5.68e-4 -10e-4,9.9e-4 -5.3e-4,0.0017 -0.001,0.0032 -0.002,0.005 -4.2e-4,0.0016 -6.1e-4,0.0034 -10e-4,0.005 -7.4e-4,0.0027 -0.002,0.0046 -0.003,0.0069 -4.6e-4,0.0012 -6.9e-4,0.0026 -0.001,0.004 -4.7e-4,0.0015 -7.2e-4,0.0039 -0.001,0.006 -3.7e-4,0.0014 -1.7e-4,0.0025 -10e-4,0.005 -3.9e-4,0.0025 -7.3e-4,0.005 -0.001,0.0069 0,0 -5.5e-4,9.95e-4 -5.5e-4,9.95e-4 l 0,0.0069 -0.872024,4.270322 c -0.998449,0.911598 -1.495815,3.682795 -1.889571,5.440552 -1.44935,14.171079 -1.705165,13.101182 -2.066341,23.845709 l 2.847577,5.259064 1.980519,0.979815 0,0.01785 0.0176,-0.0089 0.0176,0.0089 0,-0.01785 1.98052,-0.979815 2.84757,-5.259064 c -0.36118,-10.744527 -0.61698,-9.67463 -2.0665,-23.845788 -0.39376,-1.757757 -0.89112,-4.528954 -1.88957,-5.440552 l -0.87092,-4.265366 0,-9.91e-4 -5.5e-4,0 0,-9.9e-4 c -5.8e-4,-0.001 -1.8e-4,-0.0021 -5.5e-4,-0.003 -0.001,-0.0029 -0.002,-0.005 -0.002,-0.0099 2e-5,-10e-4 1.3e-4,-0.002 0,-0.003 -1.4e-4,-5.08e-4 -1.5e-4,0.0025 -5.5e-4,0.002 -5.7e-4,-3.91e-4 -8.2e-4,-0.002 -0.001,-0.003 -0.001,-0.0041 -0.002,-0.0097 -5.5e-4,-0.01388 2e-4,-7.77e-4 -3.8e-4,0.0014 -5.6e-4,0.003 l -5.5e-4,-0.003 c -8.4e-4,-0.0041 -0.001,-0.0079 -0.002,-0.0119 l -5.5e-4,-9.9e-4 c -2.8e-4,-5.08e-4 -2.7e-4,-0.0015 -5.5e-4,-0.002 -0.002,-0.0036 -0.003,-0.0084 -0.004,-0.01289 -5.7e-4,-0.0015 -0.001,-0.0039 -0.002,-0.006 -10e-4,-0.0055 -10e-4,-0.0079 -0.002,-0.01091 z m -0.0193,0.003 0,0.006 c 4.8e-4,-0.0017 6.8e-4,-0.0033 10e-4,-0.005 -4.6e-4,3.56e-4 -6.5e-4,-9.69e-4 -10e-4,-9.9e-4 z"
       id="rect3528"
       inkscape:connector-curvature="0" />
    <path
       style="fill:#ffffff"
       d="m 127.83727,22.142227 -7.9e-4,8.09e-4 c 4e-4,-4.11e-4 -2.7e-4,9.28e-4 -5.5e-4,0.0019 -3.9e-4,0.0013 -7.7e-4,0.0026 -0.001,0.0038 l 5.2e-4,1.48e-4 0.002,-0.0066 z m -0.0429,0.09192 c -0.002,0.0042 -0.005,0.008 -0.009,0.01197 -0.002,0.0032 -0.003,0.0074 -0.006,0.0097 -3.9e-4,3.89e-4 -9.1e-4,3.29e-4 -0.001,6.8e-4 -9.8e-4,0.0015 -0.002,0.0028 -0.003,0.0043 -8.4e-4,0.0014 -0.002,0.0031 -0.002,0.0045 -0.001,0.0024 -0.003,0.0039 -0.005,0.0058 -7.7e-4,10e-4 -0.001,0.0023 -0.002,0.0036 -8.7e-4,0.0013 -0.002,0.0035 -0.003,0.0055 -7.4e-4,0.0012 -8.5e-4,0.0024 -0.002,0.0045 -0.001,0.0023 -0.002,0.0046 -0.003,0.0064 0,0 -7.8e-4,8.11e-4 -7.8e-4,8.11e-4 l -0.002,0.0066 -2.01102,3.866784 c -1.21036,0.602441 -2.44946,3.130593 -3.31067,4.712699 -5.28435,13.228595 -5.2366,12.129576 -8.53382,22.362056 l 1.29427,5.838779 1.63539,1.485914 -0.005,0.01718 0.0194,-0.0037 0.0145,0.01339 0.005,-0.01718 2.17342,-0.398405 4.18203,-4.275165 c 2.60263,-10.430803 2.06292,-9.47225 4.55982,-23.496811 0.10397,-1.798318 0.38655,-4.599576 -0.32325,-5.750269 l 0.33362,-4.340571 2.7e-4,-9.53e-4 -5.2e-4,-1.48e-4 2.7e-4,-9.52e-4 c -2.9e-4,-0.0011 4e-4,-0.0021 3.1e-4,-0.003 -1.5e-4,-0.0031 -5.5e-4,-0.0054 8e-4,-0.01007 2.9e-4,-9.56e-4 6.7e-4,-0.0019 8.2e-4,-0.0029 1e-5,-5.27e-4 -8.3e-4,0.0024 -0.001,0.0018 -4.3e-4,-5.29e-4 -2.3e-4,-0.0021 -1.2e-4,-0.0032 1.8e-4,-0.0042 7.4e-4,-0.0099 0.003,-0.01349 4e-4,-6.92e-4 -7.4e-4,0.0012 -0.001,0.0027 l 3.1e-4,-0.003 c 3.1e-4,-0.0042 10e-4,-0.0079 10e-4,-0.01199 l -2.5e-4,-0.0011 c -1.3e-4,-5.65e-4 1.5e-4,-0.0015 4e-5,-0.0021 -9.4e-4,-0.004 -5.8e-4,-0.0089 -3.1e-4,-0.01349 -1.4e-4,-0.0016 1.2e-4,-0.004 -2.8e-4,-0.0063 5.6e-4,-0.0056 0.001,-0.0079 0.001,-0.01104 z m -0.0194,-0.0024 -0.002,0.0058 c 9.3e-4,-0.0015 0.002,-0.003 0.002,-0.0045 -5.3e-4,2.19e-4 -3.6e-4,-0.0011 -6.8e-4,-0.0012 z"
       id="rect3528-8"
       inkscape:connector-curvature="0" />
    <path
       inkscape:connector-curvature="0"
       id="path3623"
       d="m 73.875663,19.747492 7.9e-4,8.09e-4 c -4e-4,-4.11e-4 2.7e-4,9.28e-4 5.5e-4,0.0019 3.9e-4,0.0013 7.7e-4,0.0026 0.001,0.0038 l -5.2e-4,1.48e-4 -0.002,-0.0066 z m 0.0429,0.09192 c 0.002,0.0042 0.005,0.008 0.009,0.01197 0.002,0.0032 0.003,0.0074 0.006,0.0097 3.9e-4,3.89e-4 9.1e-4,3.29e-4 10e-4,6.8e-4 9.8e-4,0.0015 0.002,0.0028 0.003,0.0043 8.4e-4,0.0014 0.002,0.0031 0.002,0.0045 10e-4,0.0024 0.003,0.0039 0.005,0.0058 7.7e-4,0.001 0.001,0.0023 0.002,0.0036 8.7e-4,0.0013 0.002,0.0035 0.003,0.0055 7.4e-4,0.0012 8.5e-4,0.0024 0.002,0.0045 0.001,0.0023 0.002,0.0046 0.003,0.0064 0,0 7.8e-4,8.11e-4 7.8e-4,8.11e-4 l 0.002,0.0066 2.01102,3.866784 c 1.210364,0.602441 2.449464,3.130593 3.310674,4.712699 5.284354,13.228595 5.236604,12.129576 8.533828,22.362056 l -1.294274,5.838779 -1.63539,1.485914 0.005,0.01718 -0.0194,-0.0037 -0.0145,0.01339 -0.005,-0.01718 -2.17342,-0.398405 -4.182034,-4.275165 c -2.602634,-10.430803 -2.06292,-9.47225 -4.559824,-23.496811 -0.10397,-1.798318 -0.38655,-4.599576 0.32325,-5.750269 l -0.33362,-4.340571 -2.7e-4,-9.53e-4 5.2e-4,-1.48e-4 -2.7e-4,-9.52e-4 c 2.9e-4,-0.0011 -4e-4,-0.0021 -3.1e-4,-0.003 1.5e-4,-0.0031 5.5e-4,-0.0054 -8e-4,-0.01007 -2.9e-4,-9.56e-4 -6.7e-4,-0.0019 -8.2e-4,-0.0029 -10e-6,-5.27e-4 8.3e-4,0.0024 0.001,0.0018 4.3e-4,-5.29e-4 2.3e-4,-0.0021 1.2e-4,-0.0032 -1.8e-4,-0.0042 -7.4e-4,-0.0099 -0.003,-0.01349 -4e-4,-6.92e-4 7.4e-4,0.0012 0.001,0.0027 l -3.1e-4,-0.003 c -3.1e-4,-0.0042 -0.001,-0.0079 -0.001,-0.01199 l 2.5e-4,-0.0011 c 1.3e-4,-5.65e-4 -1.5e-4,-0.0015 -4e-5,-0.0021 9.4e-4,-0.004 5.8e-4,-0.0089 3.1e-4,-0.01349 1.4e-4,-0.0016 -1.2e-4,-0.004 2.8e-4,-0.0063 -5.6e-4,-0.0056 -10e-4,-0.0079 -10e-4,-0.01104 z m 0.0194,-0.0024 0.002,0.0058 c -9.3e-4,-0.0015 -0.002,-0.003 -0.002,-0.0045 5.3e-4,2.19e-4 3.6e-4,-0.0011 6.8e-4,-0.0012 z"
       style="fill:#ffffff" />
    <path
       style="fill:#ffffff"
       d="m 179.40722,55.081745 -0.001,2.3e-4 c 5.7e-4,-1.05e-4 -7.6e-4,6.08e-4 -10e-4,0.0013 -0.001,9.31e-4 -0.002,0.0017 -0.003,0.0024 l 3.3e-4,4.11e-4 0.006,-0.0042 z m -0.0878,0.0509 c -0.004,0.0022 -0.009,0.0036 -0.0139,0.0049 -0.003,0.0016 -0.007,0.0043 -0.0103,0.0046 -5.5e-4,9.5e-5 -9.5e-4,-2.53e-4 -0.001,-6.8e-5 -0.002,5.81e-4 -0.003,0.0013 -0.005,0.0016 -0.001,7.47e-4 -0.003,0.0016 -0.004,0.0024 -0.002,0.0013 -0.005,0.0013 -0.007,0.002 -0.001,4.36e-4 -0.002,0.0012 -0.003,0.0018 -10e-4,6.39e-4 -0.003,0.0019 -0.005,0.003 -0.001,6.42e-4 -0.002,0.0015 -0.004,0.0024 -0.002,0.0013 -0.004,0.0026 -0.005,0.0037 0,0 -0.001,2.23e-4 -0.001,2.23e-4 l -0.006,0.0042 -3.86043,2.023189 c -1.3375,-0.197576 -3.79935,1.168507 -5.41037,1.974339 -11.89773,7.833525 -11.23031,6.959072 -19.78491,13.470145 l -2.27566,5.530628 0.49247,2.15405 -0.0138,0.0113 0.018,0.0079 0.004,0.01919 0.0138,-0.0113 2.01105,0.915496 5.87522,-1.117249 c 8.09805,-7.07085 7.10727,-6.592868 17.17285,-16.672884 1.11329,-1.416108 2.94643,-3.553038 3.0218,-4.902939 l 2.75494,-3.370786 7.7e-4,-6.25e-4 -3.4e-4,-4.12e-4 7.7e-4,-6.25e-4 c 4e-4,-0.0011 0.001,-0.0015 0.002,-0.0023 0.001,-0.0026 0.003,-0.0046 0.006,-0.0078 8e-4,-6.15e-4 0.001,-0.0012 0.002,-0.002 3e-4,-4.31e-4 -0.002,0.0015 -0.002,8.52e-4 -4e-5,-6.81e-4 0.001,-0.0018 0.001,-0.0027 0.002,-0.0034 0.006,-0.0076 0.0107,-0.0091 7.3e-4,-3.36e-4 -0.001,6.36e-4 -0.002,0.0016 l 0.002,-0.0023 c 0.002,-0.0034 0.005,-0.0058 0.008,-0.0092 l 4.2e-4,-0.0011 c 2.2e-4,-5.38e-4 9.9e-4,-0.0011 0.001,-0.0017 10e-4,-0.0038 0.004,-0.0077 0.007,-0.01135 8e-4,-0.0014 0.002,-0.0033 0.003,-0.0053 0.004,-0.0042 0.005,-0.0058 0.007,-0.0084 z m -0.0145,-0.01306 -0.004,0.0038 c 0.001,-7.89e-4 0.003,-0.0015 0.004,-0.0024 -5.6e-4,-1.23e-4 3.5e-4,-0.0012 1.4e-4,-0.0014 z"
       id="rect3528-0"
       inkscape:connector-curvature="0" />
    <path
       style="fill:#ffffff"
       d="m 195.27684,82.607697 -9.8e-4,-1.74e-4 c 5.1e-4,-1.1e-5 -9.1e-4,3.31e-4 -0.002,6.15e-4 -0.001,5.49e-4 -0.002,9.08e-4 -0.003,0.0014 l 2e-4,5.41e-4 0.007,-0.0022 z m -0.0996,0.01872 c -0.004,9.11e-4 -0.009,5.67e-4 -0.0149,-3.39e-4 -0.004,1.53e-4 -0.008,0.0019 -0.0114,8.47e-4 -4.9e-4,2e-6 -7.8e-4,-4.96e-4 -9.5e-4,-3.74e-4 -0.002,1e-4 -0.003,8.9e-5 -0.005,1.19e-4 -0.002,2.6e-5 -0.004,5.6e-5 -0.004,0.0011 -0.002,7.13e-4 -0.005,-2.03e-4 -0.008,-7.67e-4 -10e-4,-4.9e-5 -0.002,6.14e-4 -0.004,4.47e-4 -0.001,1.82e-4 -0.004,3.49e-4 -0.006,7.69e-4 -10e-4,1.08e-4 -0.002,8.1e-4 -0.004,0.0011 -0.002,6.14e-4 -0.005,9.89e-4 -0.006,0.0015 0,0 -9.9e-4,-1.73e-4 -9.9e-4,-1.73e-4 l -0.007,0.0022 -4.31423,0.619365 c -1.19494,-0.63246 -3.97151,-0.165989 -5.75907,0.05623 -13.8295,3.415422 -12.90858,2.813721 -23.14529,6.097795 l -3.99041,4.454558 -0.25437,2.194941 -0.0169,0.0059 0.0143,0.01366 -0.002,0.01955 0.0169,-0.0059 1.59041,1.533963 5.91135,0.906841 c 9.99307,-3.964085 8.89959,-3.844021 21.75137,-9.98847 1.52195,-0.963565 3.963,-2.366491 4.48441,-3.613905 l 3.72165,-2.258566 9.3e-4,-3.47e-4 -2e-4,-5.42e-4 9.3e-4,-3.38e-4 c 7.3e-4,-8.57e-4 0.002,-9.09e-4 0.002,-0.0016 0.002,-0.0019 0.004,-0.0036 0.008,-0.0052 9.3e-4,-3.31e-4 0.002,-6.15e-4 0.003,-8.73e-4 4.2e-4,-3.13e-4 -0.002,8.1e-4 -0.002,2.23e-4 1.1e-4,-7.75e-4 0.001,-0.0015 0.002,-0.002 0.004,-0.0022 0.008,-0.0051 0.0127,-0.0054 7.2e-4,-1.84e-4 -0.001,1.1e-4 -0.003,6.78e-4 l 0.002,-0.0016 c 0.004,-0.0022 0.007,-0.0037 0.0107,-0.0061 l 7.3e-4,-8.43e-4 c 3.9e-4,-4.34e-4 0.001,-7.48e-4 0.001,-0.0014 0.003,-0.003 0.006,-0.0058 0.0112,-0.0081 0.001,-0.0011 0.004,-0.0021 0.005,-0.0039 0.005,-0.0028 0.007,-0.0037 0.009,-0.0057 z m -0.01,-0.01716 -0.006,0.0019 c 0.002,-9.8e-5 0.003,-2.36e-4 0.004,-0.0011 -5.1e-4,-3.28e-4 7.3e-4,-8.56e-4 6.5e-4,-0.0012 z"
       id="rect3528-8-4"
       inkscape:connector-curvature="0" />
    <path
       inkscape:connector-curvature="0"
       id="path3623-0"
       d="m 153.36914,33.720937 -6e-5,0.0011 c 3e-5,-5.81e-4 -5.1e-4,8.3e-4 -0.001,0.0017 -6.9e-4,0.0011 -0.001,0.0024 -0.002,0.0033 l -4.7e-4,-2.82e-4 0.004,-0.0059 z m -0.0385,0.09385 c -10e-4,0.0044 -0.002,0.0091 -0.003,0.01474 -9.9e-4,0.0036 -0.004,0.0071 -0.003,0.01096 -2e-5,5.55e-4 3.8e-4,8.99e-4 1.8e-4,0.0012 -4.4e-4,0.0018 -7e-4,0.0033 -10e-4,0.0051 -4.7e-4,0.0016 -9.4e-4,0.0036 -0.002,0.0046 -0.001,0.0024 -8.3e-4,0.0048 -8.8e-4,0.0076 -2e-4,0.0013 -0.001,0.0023 -0.001,0.0039 -3.8e-4,0.0016 -0.001,0.0039 -0.002,0.006 -3.8e-4,0.0014 -0.001,0.0023 -0.002,0.0046 -0.001,0.0023 -0.003,0.0046 -0.003,0.0065 0,0 -7e-5,0.0011 -7e-5,0.0011 l -0.004,0.0059 -1.47953,4.099658 c 0.37758,1.298205 -0.6411,3.922937 -1.22043,5.628552 -6.14318,12.852289 -5.36758,12.072184 -10.65513,21.432595 l -5.16989,3.006454 -2.201,-0.19503 -0.01,0.01528 -0.0104,-0.01677 -0.0196,-0.0016 0.01,-0.01528 -1.18041,-1.867912 0.30809,-5.972564 c 5.90419,-8.984188 5.56534,-7.937625 14.18324,-19.28022 1.25161,-1.295475 3.11947,-3.402131 4.44659,-3.660332 l 2.96492,-3.187646 5.2e-4,-8.49e-4 4.6e-4,2.82e-4 5.3e-4,-8.48e-4 c 0.001,-5.33e-4 0.001,-0.0017 0.002,-0.0023 0.002,-0.002 0.004,-0.0032 0.007,-0.0074 5.2e-4,-8.64e-4 9.5e-4,-0.0018 0.001,-0.0026 3.9e-4,-3.7e-4 -0.001,0.0023 -6.5e-4,0.0019 6.9e-4,-4.8e-5 0.002,-0.0012 0.002,-0.0021 0.003,-0.003 0.007,-0.0073 0.008,-0.0113 2.6e-4,-7.72e-4 -3.8e-4,0.0014 -0.001,0.0026 l 0.002,-0.0023 c 0.003,-0.0031 0.005,-0.0061 0.008,-0.0089 l 9.8e-4,-5.62e-4 c 5e-4,-2.87e-4 0.001,-0.0011 0.001,-0.0015 0.003,-0.0021 0.007,-0.0056 0.01,-0.009 0.001,-9.85e-4 0.003,-0.0028 0.004,-0.0041 0.003,-0.0042 0.005,-0.0061 0.007,-0.0083 z m 0.0149,0.01263 -0.003,0.0054 c 4.7e-4,-0.0017 8.5e-4,-0.0035 0.002,-0.0046 1.9e-4,5.38e-4 0.001,-4.81e-4 0.001,-3.46e-4 z"
       style="fill:#ffffff" />
    <path
       style="fill:#ffffff"
       d="m 201.14188,111.09706 -8.8e-4,-4.6e-4 c 5.5e-4,1.9e-4 -0.001,5e-5 -0.002,2e-5 -0.001,1.1e-4 -0.002,1.1e-4 -0.004,2.6e-4 l -1e-5,5.6e-4 0.007,-2.8e-4 z m -0.10082,-0.0114 c -0.004,-5.7e-4 -0.009,-0.003 -0.0144,-0.004 -0.004,-7.3e-4 -0.008,-4.5e-4 -0.0116,-0.002 -5.4e-4,-1.7e-4 -5.5e-4,-6.8e-4 -7.7e-4,-6.2e-4 -0.002,-6.7e-4 -0.003,-7.5e-4 -0.005,-6.6e-4 -0.002,-6.8e-4 -0.004,-7.2e-4 -0.005,1e-4 -0.002,9e-5 -0.005,-6.6e-4 -0.008,-0.004 -9.5e-4,-3.4e-4 -0.002,2e-5 -0.004,-7.3e-4 -9.9e-4,-1.4e-4 -0.004,-7.2e-4 -0.006,-0.002 -9.8e-4,-1.9e-4 -0.002,1.2e-4 -0.005,1e-4 -0.002,2e-5 -0.005,-6.4e-4 -0.007,-5e-4 0,0 -9e-4,-4.5e-4 -9e-4,-4.5e-4 l -0.007,2.9e-4 -4.30876,-0.65639 c -0.96046,-0.95128 -3.75316,-1.30876 -5.52848,-1.61367 -14.22601,-0.73534 -13.17033,-1.0446 -23.91943,-0.86532 l -5.10932,3.10827 -0.87903,2.02725 -0.0181,3.8e-4 0.0102,0.017 -0.008,0.0183 0.0181,-3.8e-4 1.07811,1.92876 5.39554,2.57966 c 10.7128,-0.90067 9.6314,-1.10239 23.7118,-3.26228 1.73574,-0.48159 4.47844,-1.1176 5.33871,-2.16059 l 4.21621,-1.08417 0.001,-6e-5 0,-5.5e-4 0.001,-6e-5 c 8.8e-4,-4.8e-4 0.002,-1e-4 0.003,-7.3e-4 0.003,-7.2e-4 0.005,-0.003 0.0102,-0.002 10e-4,-5e-5 0.002,-2e-5 0.004,-10e-5 4.6e-4,-2e-4 -0.002,1.2e-4 -0.002,-5.9e-4 3.2e-4,-7.1e-4 0.002,-8e-4 0.003,-7.2e-4 0.004,-6.4e-4 0.0102,-0.002 0.0137,-0.002 6.7e-4,-10e-6 -9.8e-4,-1.9e-4 -0.003,-5.8e-4 l 0.003,-7.2e-4 c 0.004,-6.5e-4 0.008,-8.1e-4 0.0119,-0.003 l 8.8e-4,-4.8e-4 c 5e-4,-3.1e-4 9.9e-4,-1.7e-4 0.002,-8.2e-4 0.004,-0.003 0.007,-0.003 0.013,-0.005 0.002,-8.3e-4 0.004,-6.4e-4 0.006,-0.002 0.005,-0.002 0.008,-8.1e-4 0.0107,-0.003 z m -0.004,-0.0192 -0.006,2.8e-4 c 0.002,6.7e-4 0.003,7.4e-4 0.005,-1e-4 -3.9e-4,-4.6e-4 8.6e-4,-5e-4 6.4e-4,-8.1e-4 z"
       id="rect3528-8-4-2"
       inkscape:connector-curvature="0" />
    <path
       inkscape:connector-curvature="0"
       id="path3676"
       d="m 200.23573,136.35567 -7.6e-4,-6.2e-4 c 5e-4,2.9e-4 -9.9e-4,-1.7e-4 -0.002,-4.2e-4 -0.001,-10e-5 -0.002,-3.2e-4 -0.004,-6e-4 l -1.2e-4,5.4e-4 0.007,0.001 z m -0.096,-0.0328 c -0.004,-0.001 -0.008,-0.005 -0.0132,-0.007 -0.004,-0.002 -0.008,-0.002 -0.0108,-0.005 -4.9e-4,-2.8e-4 -4e-4,-7.9e-4 -6.2e-4,-7.8e-4 -0.002,-0.001 -0.003,-0.001 -0.005,-0.002 -0.002,-0.001 -0.004,-0.002 -0.005,-9.8e-4 -0.002,-3.4e-4 -0.005,-0.002 -0.007,-0.006 -8.6e-4,-5.3e-4 -0.002,-4e-4 -0.004,-0.002 -9.4e-4,-3.5e-4 -0.004,-0.002 -0.006,-0.003 -9.2e-4,-4e-4 -0.002,-3.2e-4 -0.005,-9.8e-4 -0.002,-4.1e-4 -0.005,-0.002 -0.007,-0.002 0,0 -7.8e-4,-6.4e-4 -7.8e-4,-6.4e-4 l -0.007,-10e-4 -4.06764,-1.56542 c -0.73404,-1.13517 -3.38503,-2.08342 -5.05361,-2.76207 -13.73708,-3.76997 -12.63963,-3.84556 -23.17695,-5.97634 l -5.65716,1.93985 -1.29345,1.79149 -0.0178,-0.004 0.006,0.0188 -0.0115,0.0162 0.0178,0.004 0.63925,2.11513 4.71654,3.67706 c 10.65662,1.41839 9.64367,0.98938 23.85961,1.9003 1.79864,-0.098 4.61393,-0.13088 5.67791,-0.96504 l 4.35063,-0.15448 9.9e-4,1.6e-4 1.2e-4,-5.4e-4 9.9e-4,1.6e-4 c 9.6e-4,-2.8e-4 0.002,3.3e-4 0.003,-8e-5 0.003,-7e-5 0.005,-0.002 0.0103,5.3e-4 9.8e-4,1.7e-4 0.002,4.1e-4 0.004,7.7e-4 4.9e-4,-1e-4 -0.002,-3.2e-4 -0.002,-0.001 4.6e-4,-6.3e-4 0.002,-3.7e-4 0.003,-7e-5 0.004,2.3e-4 0.0103,5.2e-4 0.0138,0.001 6.5e-4,1.3e-4 -9.2e-4,-4e-4 -0.003,-0.001 l 0.003,-7e-5 c 0.004,2.2e-4 0.008,9.2e-4 0.0123,-2e-4 l 9.6e-4,-2.8e-4 c 5.6e-4,-1.9e-4 0.001,4e-5 0.002,-3.8e-4 0.004,-0.002 0.007,-0.002 0.0138,-0.002 0.002,-3.9e-4 0.004,2.2e-4 0.006,-0.001 0.005,-0.001 0.008,9.2e-4 0.0111,-3.8e-4 z m -1.1e-4,-0.0197 -0.006,-0.001 c 0.002,0.001 0.003,0.001 0.005,9.8e-4 -2.9e-4,-5.3e-4 9.4e-4,-3.1e-4 7.9e-4,-6.5e-4 z"
       style="fill:#ffffff" />
    <path
       style="fill:#ffffff"
       d="m 191.50849,159.95503 -6.4e-4,-7.5e-4 c 4.4e-4,3.8e-4 -9.4e-4,-3.4e-4 -0.002,-7.7e-4 -9.7e-4,-2.8e-4 -0.002,-6.7e-4 -0.004,-0.001 l -2.1e-4,5.1e-4 0.007,0.002 z m -0.0886,-0.0494 c -0.004,-0.002 -0.007,-0.006 -0.0117,-0.009 -0.004,-0.003 -0.008,-0.003 -0.01,-0.007 -4.3e-4,-3.7e-4 -2.5e-4,-8.5e-4 -4.7e-4,-8.8e-4 -0.002,-10e-4 -0.003,-0.002 -0.005,-0.003 -0.002,-0.001 -0.004,-0.003 -0.005,-0.002 -0.002,-6.9e-4 -0.005,-0.003 -0.006,-0.007 -7.5e-4,-6.7e-4 -0.002,-7.5e-4 -0.004,-0.003 -8.6e-4,-5.1e-4 -0.004,-0.003 -0.005,-0.004 -8.3e-4,-5.6e-4 -0.002,-6.7e-4 -0.005,-0.002 -0.002,-7.6e-4 -0.005,-0.003 -0.007,-0.003 0,0 -6.5e-4,-7.7e-4 -6.5e-4,-7.7e-4 l -0.007,-0.002 -3.72311,-2.26599 c -0.51974,-1.24792 -2.95903,-2.6539 -4.47977,-3.61935 -12.84411,-6.16025 -11.75078,-6.03884 -21.73891,-10.01535 l -5.91248,0.89947 -1.59231,1.53199 -0.0168,-0.007 0.003,0.0196 -0.0142,0.0139 0.0168,0.007 0.25164,2.19525 3.98487,4.45952 c 10.23261,3.29683 9.31245,2.69399 23.13781,6.12649 1.78727,0.22446 4.56326,0.69437 5.75899,0.0634 l 4.30839,0.62417 9.5e-4,3.4e-4 2.1e-4,-5.1e-4 9.5e-4,3.3e-4 c 9.9e-4,-1e-4 0.002,6.8e-4 0.003,4.6e-4 0.003,4.6e-4 0.005,-0.001 0.01,0.002 9.4e-4,3.4e-4 0.002,7.6e-4 0.004,0.001 5e-4,-1e-5 -0.002,-6.7e-4 -0.002,-0.001 5.7e-4,-5.4e-4 0.002,-10e-6 0.003,4.6e-4 0.004,9.4e-4 0.01,0.002 0.0134,0.003 6.1e-4,2.4e-4 -8.4e-4,-5.6e-4 -0.003,-0.002 l 0.003,4.7e-4 c 0.004,9.3e-4 0.008,0.002 0.0121,0.002 l 9.9e-4,-1e-4 c 5.9e-4,-9e-5 9.8e-4,2.2e-4 0.002,-2e-5 0.004,-0.001 0.007,-7.2e-4 0.0139,5e-4 0.002,-3e-5 0.004,9.3e-4 0.006,8e-5 0.005,-9e-5 0.008,0.002 0.011,0.002 z m 0.003,-0.0194 -0.006,-0.002 c 0.002,0.001 0.003,0.002 0.005,0.002 -1.9e-4,-5.8e-4 9.8e-4,-1.4e-4 8.9e-4,-5e-4 z"
       id="path3687"
       inkscape:connector-curvature="0" />
    <path
       inkscape:connector-curvature="0"
       id="path3698"
       d="m 175.92968,182.55693 -4.7e-4,-8.7e-4 c 3.5e-4,4.7e-4 -8.5e-4,-5.2e-4 -0.002,-0.001 -8.9e-4,-4.8e-4 -0.002,-0.001 -0.004,-0.002 l -3.1e-4,4.5e-4 0.006,0.003 z m -0.0768,-0.0663 c -0.004,-0.003 -0.006,-0.007 -0.01,-0.0112 -0.003,-0.004 -0.007,-0.005 -0.008,-0.009 -3.5e-4,-4.5e-4 -8e-5,-8.8e-4 -2.9e-4,-9.6e-4 -0.002,-0.001 -0.003,-0.003 -0.004,-0.004 -0.002,-0.001 -0.003,-0.004 -0.005,-0.003 -0.002,-0.001 -0.004,-0.004 -0.004,-0.008 -6e-4,-8e-4 -0.002,-10e-4 -0.003,-0.004 -7.4e-4,-6.8e-4 -0.003,-0.004 -0.004,-0.005 -7e-4,-7.2e-4 -0.002,-0.001 -0.004,-0.003 -0.002,-10e-4 -0.004,-0.004 -0.006,-0.004 0,0 -4.8e-4,-8.8e-4 -4.8e-4,-8.8e-4 l -0.006,-0.003 -3.18725,-2.97283 c -0.25633,-1.3273 -2.36046,-3.19801 -3.65424,-4.45135 -11.33096,-8.63304 -10.28485,-8.29279 -19.26107,-14.20911 l -5.97215,-0.31617 -1.86949,1.1779 -0.015,-0.0103 -0.001,0.0198 -0.0167,0.0107 0.015,0.0103 -0.19801,2.20073 2.99949,5.17393 c 9.35325,5.3002 8.57419,4.52356 21.41832,10.68399 1.70482,0.58166 4.32819,1.60385 5.6269,1.22803 l 4.0928,1.4835 8.6e-4,5.2e-4 3.1e-4,-4.5e-4 8.6e-4,5.1e-4 c 9.9e-4,1.1e-4 0.002,0.001 0.003,0.001 0.003,10e-4 0.005,3e-5 0.009,0.004 8.5e-4,5.3e-4 0.002,0.001 0.004,0.002 4.9e-4,9e-5 -0.002,-0.001 -0.002,-0.001 6.6e-4,-4.1e-4 0.002,3.9e-4 0.003,0.001 0.004,0.002 0.009,0.004 0.0125,0.006 5.4e-4,3.6e-4 -7.1e-4,-7.2e-4 -0.003,-0.003 l 0.003,0.001 c 0.004,0.002 0.007,0.004 0.0114,0.004 l 9.9e-4,1e-4 c 6e-4,3e-5 9.2e-4,4.1e-4 0.002,3.8e-4 0.004,-1.6e-4 0.007,7.2e-4 0.0135,0.003 0.002,3.7e-4 0.004,0.002 0.006,0.001 0.005,9.3e-4 0.007,0.004 0.0104,0.004 z m 0.007,-0.0184 -0.005,-0.003 c 0.002,10e-4 0.003,0.003 0.004,0.003 -6e-5,-6.1e-4 9.9e-4,6e-5 9.8e-4,-3.1e-4 z"
       style="fill:#ffffff" />
    <path
       style="fill:#ffffff"
       d="m 152.64686,202.34319 -1.7e-4,-9.8e-4 c 1.9e-4,5.6e-4 -6.4e-4,-7.6e-4 -0.002,-0.002 -6.9e-4,-7.4e-4 -0.002,-0.002 -0.003,-0.003 l -4.3e-4,3.3e-4 0.005,0.005 z m -0.0521,-0.087 c -0.003,-0.004 -0.004,-0.009 -0.006,-0.0138 -0.002,-0.005 -0.005,-0.007 -0.005,-0.0111 -1.9e-4,-5.4e-4 2e-4,-8.6e-4 3e-5,-0.001 -0.002,-0.002 -0.002,-0.004 -0.003,-0.005 -0.002,-0.002 -0.002,-0.005 -0.004,-0.004 -0.002,-0.002 -0.003,-0.005 -10e-4,-0.009 -3.2e-4,-9.5e-4 -0.002,-0.002 -0.002,-0.005 -4.9e-4,-8.8e-4 -0.002,-0.005 -0.002,-0.006 -4.4e-4,-9e-4 -0.002,-0.002 -0.003,-0.004 -0.002,-0.002 -0.003,-0.005 -0.004,-0.006 0,0 -1.8e-4,-9.8e-4 -1.8e-4,-9.8e-4 l -0.005,-0.005 -2.09449,-3.82222 c 0.17273,-1.34075 -1.2388,-3.77683 -2.0744,-5.37261 -8.05299,-11.75029 -7.1663,-11.09921 -13.83504,-19.53149 l -5.57191,-2.17264 -2.14453,0.53238 -0.011,-0.0145 -0.007,0.0185 -0.0192,0.005 0.011,0.0145 -0.87801,2.02768 1.22611,5.85348 c 7.21993,7.96543 6.72364,6.98369 16.98874,16.86045 1.4365,1.08684 3.60712,2.87998 4.95817,2.93028 l 3.42133,2.6919 6.6e-4,7.6e-4 4.3e-4,-3.3e-4 6.6e-4,7.5e-4 c 9.1e-4,4.2e-4 0.002,0.002 0.003,0.002 0.003,0.002 0.005,0.002 0.007,0.007 6.4e-4,7.7e-4 0.002,0.002 0.003,0.003 4.4e-4,2.3e-4 -0.002,-0.002 -0.002,-0.002 7.6e-4,-1.8e-4 0.002,0.001 0.003,0.002 0.003,0.003 0.007,0.007 0.01,0.01 4e-4,5.1e-4 -4.5e-4,-9.1e-4 -0.002,-0.004 l 0.003,0.002 c 0.003,0.003 0.005,0.006 0.01,0.007 l 9.1e-4,4e-4 c 5.6e-4,2.2e-4 7.5e-4,6.8e-4 0.002,9.9e-4 0.004,0.001 0.006,0.003 0.0119,0.007 0.002,9.8e-4 0.003,0.003 0.005,0.003 0.004,0.002 0.005,0.006 0.009,0.007 z m 0.0124,-0.0153 -0.004,-0.004 c 0.002,0.002 0.002,0.004 0.003,0.004 1.3e-4,-6e-4 9.2e-4,3.7e-4 0.001,1e-5 z"
       id="path3700"
       inkscape:connector-curvature="0" />
    <path
       inkscape:connector-curvature="0"
       id="path3702"
       d="m 122.93073,213.35181 1.7e-4,-9.8e-4 c -2e-5,6e-4 -3.5e-4,-9.2e-4 -8.5e-4,-0.002 -4e-4,-9.4e-4 -8.5e-4,-0.002 -0.002,-0.004 l -5.2e-4,1.6e-4 0.003,0.006 z m -0.0198,-0.0994 c -0.002,-0.005 -2.6e-4,-0.01 -8.9e-4,-0.015 -2.3e-4,-0.005 -0.002,-0.008 -10e-4,-0.0121 0,-5.7e-4 4.7e-4,-7.5e-4 3.7e-4,-9.3e-4 -8.5e-4,-0.002 -5.8e-4,-0.004 -0.002,-0.006 -8.5e-4,-0.002 -2.3e-4,-0.005 -0.003,-0.005 -8.5e-4,-0.002 -0.002,-0.006 0.002,-0.009 2e-5,-10e-4 -8.5e-4,-0.002 -2.3e-4,-0.005 -1.6e-4,-9.9e-4 -2.3e-4,-0.005 1.1e-4,-0.006 -1.1e-4,-10e-4 -8.5e-4,-0.002 -0.002,-0.005 -8.5e-4,-0.002 -0.002,-0.006 -0.001,-0.007 0,0 1.6e-4,-9.9e-4 1.6e-4,-9.9e-4 l -0.003,-0.006 -0.68846,-4.30375 c 0.61318,-1.20476 0.10224,-3.97349 -0.1486,-5.75726 -3.6367,-13.77296 -3.02032,-12.8618 -6.4681,-23.04455 l -4.51796,-3.91848 -2.19873,-0.21911 -0.006,-0.0174 -0.0128,0.0151 -0.0197,-0.002 0.006,0.0174 -1.50828,1.61479 -0.81194,5.92514 c 4.12379,9.92823 3.98621,8.83682 10.33592,21.58844 0.98781,1.50631 2.42973,3.92453 3.68534,4.42586 l 2.31794,3.68497 3.6e-4,9.4e-4 5.2e-4,-1.7e-4 3.6e-4,9.3e-4 c 7.2e-4,7e-4 8.5e-4,0.002 0.002,0.003 0.002,0.003 0.004,0.003 0.004,0.009 3.5e-4,9.4e-4 8.5e-4,0.002 0.002,0.004 3.3e-4,3.6e-4 -8.5e-4,-0.002 -8.5e-4,-0.002 7.8e-4,9e-5 0.002,0.002 0.002,0.003 0.002,0.004 0.004,0.009 0.006,0.0128 2e-4,6.1e-4 -1.2e-4,-10e-4 -5.8e-4,-0.004 l 0.002,0.003 c 0.002,0.004 0.002,0.007 0.007,0.01 l 7.2e-4,6.9e-4 c 4.7e-4,3.9e-4 4.9e-4,8.9e-4 0.002,0.001 0.004,0.002 0.005,0.004 0.009,0.0107 0.002,10e-4 0.002,0.004 0.004,0.004 0.003,0.003 0.002,0.007 0.006,0.009 z m 0.0168,-0.0102 -0.003,-0.005 c 8.5e-4,0.002 5.6e-4,0.004 0.002,0.005 3.2e-4,-5.2e-4 7.5e-4,6.6e-4 9.4e-4,3.5e-4 z"
       style="fill:#ffffff" />
    <path
       style="fill:#ffffff"
       d="m 87.948523,215.66866 5.51e-4,-8.3e-4 c -2.61e-4,5.4e-4 5e-5,-9.8e-4 2.8e-5,-0.002 1.3e-5,-0.001 2.8e-5,-0.002 -2.18e-4,-0.004 l -5.41e-4,-6e-5 3.27e-4,0.007 z m 0.02195,-0.0989 c 1.85e-4,-0.005 0.0038,-0.009 0.0052,-0.0141 0.0018,-0.005 0.0014,-0.008 0.004,-0.0115 2.3e-4,-5.2e-4 7.32e-4,-5e-4 7.14e-4,-7e-4 2.8e-5,-0.002 0.0011,-0.004 5.88e-4,-0.006 2.8e-5,-0.002 0.0018,-0.005 -7.3e-4,-0.006 2.8e-5,-0.002 5.88e-4,-0.006 0.0055,-0.007 4.21e-4,-9e-4 2.8e-5,-0.002 0.0018,-0.005 2.53e-4,-9.8e-4 0.0018,-0.005 0.0025,-0.005 3.02e-4,-9.6e-4 2.8e-5,-0.002 1.85e-4,-0.005 2.8e-5,-0.002 5.88e-4,-0.006 0.0019,-0.007 0,0 5.45e-4,-8.4e-4 5.45e-4,-8.4e-4 l -3.27e-4,-0.007 1.104682,-4.21615 c 1.046771,-0.8554 1.695184,-3.5952 2.184618,-5.32875 2.223359,-14.07042 2.420183,-12.98811 3.369308,-23.69674 l -2.555242,-5.40714 -1.923886,-1.08678 0.0015,-0.0183 -0.0178,0.009 -0.01722,-0.01 -0.0015,0.0183 -2.031211,0.86985 -3.13134,5.09522 c -0.227873,10.74818 0.08614,9.6939 0.757314,23.92318 0.296853,1.77668 0.641725,4.57096 1.588743,5.53587 l 0.63598,4.30666 -5e-5,10e-4 5.45e-4,5e-5 -4.6e-5,0.001 c 3.77e-4,9.3e-4 -2.8e-5,0.002 6.21e-4,0.004 6.22e-4,0.004 0.0025,0.004 3.3e-5,0.01 -5.8e-5,0.001 -2.8e-5,0.002 2.18e-4,0.004 1.57e-4,4.6e-4 2.9e-5,-0.002 2.9e-5,-0.002 6.77e-4,4e-4 0.001,0.003 6.21e-4,0.004 2.18e-4,0.004 3.3e-5,0.01 3.31e-4,0.0141 -6.2e-5,6.4e-4 2.94e-4,-9.7e-4 0.0011,-0.004 l 6.21e-4,0.004 c 2.18e-4,0.004 -9.91e-4,0.007 0.0024,0.012 l 3.8e-4,9.2e-4 c 2.73e-4,5.5e-4 9e-5,10e-4 0.0014,0.002 0.0029,0.003 0.003,0.006 0.0039,0.0134 0.0014,0.002 2.18e-4,0.004 0.002,0.005 0.0015,0.004 -9.92e-4,0.007 0.0019,0.0107 z m 0.01949,-0.003 -7.31e-4,-0.006 c -2.8e-5,0.002 -0.0011,0.004 -1.85e-4,0.005 5.03e-4,-3.4e-4 4.21e-4,9.1e-4 7.2e-4,7e-4 z"
       id="path3704"
       inkscape:connector-curvature="0" />
    <path
       inkscape:connector-curvature="0"
       id="path3706"
       d="m 54.095964,205.66182 8.27e-4,-5.6e-4 c -4.48e-4,4e-4 4.22e-4,-8.8e-4 7.92e-4,-0.002 3.96e-4,-9.2e-4 7.93e-4,-0.002 0.0013,-0.004 l -4.77e-4,-2.7e-4 -0.0024,0.007 z m 0.05817,-0.0829 c 0.0021,-0.005 0.007,-0.007 0.01021,-0.011 0.0036,-0.004 0.0044,-0.007 0.0081,-0.009 4.12e-4,-4e-4 8.68e-4,-1.9e-4 9.28e-4,-3.8e-4 7.92e-4,-0.002 0.0025,-0.003 0.0028,-0.005 7.93e-4,-0.002 0.0036,-0.004 0.0016,-0.006 7.92e-4,-0.002 0.0028,-0.005 0.0078,-0.004 7.33e-4,-6.7e-4 7.92e-4,-0.002 0.0036,-0.004 6.09e-4,-8.1e-4 0.0036,-0.004 0.0042,-0.004 6.47e-4,-7.7e-4 7.92e-4,-0.002 0.0021,-0.005 7.92e-4,-0.002 0.0028,-0.005 0.0044,-0.006 0,0 8.26e-4,-5.6e-4 8.26e-4,-5.6e-4 l 0.0024,-0.007 2.635907,-3.47105 c 1.294646,-0.38901 2.943403,-2.67124 4.059741,-4.08493 7.445151,-12.14454 7.212233,-11.06942 12.19224,-20.59702 l -0.288307,-5.97355 -1.360612,-1.74102 0.0084,-0.0163 -0.01989,0.001 -0.01207,-0.0158 -0.0084,0.0163 -2.209486,0.0251 -4.844719,3.50646 c -4.32896,9.84049 -3.634936,8.98701 -8.467354,22.3874 -0.406591,1.75482 -1.158752,4.46798 -0.653749,5.72212 l -1.062785,4.22164 -4.29e-4,9e-4 4.84e-4,2.6e-4 -4.25e-4,9.1e-4 c -9e-6,0.001 -7.93e-4,0.002 -9.6e-4,0.004 -9.58e-4,0.004 7.77e-4,0.005 -0.0038,0.009 -4.37e-4,9e-4 -7.92e-4,0.002 -0.0013,0.004 -3.1e-5,4.8e-4 7.93e-4,-0.002 7.93e-4,-0.002 4.72e-4,6.3e-4 -2.26e-4,0.003 -9.59e-4,0.004 -0.0013,0.004 -0.0038,0.009 -0.0051,0.0131 -3.03e-4,5.7e-4 6.43e-4,-7.8e-4 0.0025,-0.003 l -9.6e-4,0.004 c -0.0013,0.004 -0.0036,0.006 -0.0024,0.012 l -10e-7,9.9e-4 c 4.1e-5,6.1e-4 -3.01e-4,9.6e-4 5.26e-4,0.002 0.0015,0.004 4.72e-4,0.007 -0.0015,0.0139 5.27e-4,0.002 -0.0013,0.004 -6.9e-5,0.005 -1.47e-4,0.004 -0.0036,0.006 -0.0023,0.0106 z m 0.01915,0.005 0.0016,-0.006 c -7.92e-4,0.002 -0.0025,0.003 -0.0021,0.005 5.95e-4,-1.2e-4 4.1e-5,0.001 3.97e-4,9.2e-4 z"
       style="fill:#ffffff" />
    <path
       style="fill:#ffffff"
       d="m 31.007771,191.03812 9.48e-4,-3.1e-4 c -5.4e-4,2.6e-4 6.44e-4,-7.4e-4 0.0013,-0.002 6.31e-4,-7.8e-4 0.0013,-0.002 0.0023,-0.004 l -3.86e-4,-3.9e-4 -0.0042,0.006 z m 0.07846,-0.064 c 0.0034,-0.004 0.0086,-0.005 0.01281,-0.008 0.0045,-0.003 0.0061,-0.006 0.01024,-0.006 5.05e-4,-2.7e-4 8.87e-4,5e-5 9.96e-4,-1.1e-4 0.0013,-0.002 0.0032,-0.002 0.004,-0.004 0.0013,-0.002 0.0046,-0.003 0.0032,-0.005 0.0013,-0.002 0.004,-0.004 0.0086,-0.002 8.87e-4,-4.5e-4 0.0013,-0.002 0.0045,-0.003 8.06e-4,-6.1e-4 0.0046,-0.003 0.0051,-0.003 8.32e-4,-5.7e-4 0.0013,-0.002 0.0034,-0.004 0.0013,-0.002 0.004,-0.004 0.0059,-0.005 0,0 9.47e-4,-3.1e-4 9.47e-4,-3.1e-4 l 0.0042,-0.006 3.478017,-2.62671 c 1.351623,-0.0236 3.557229,-1.77349 5.01494,-2.8317 10.458065,-9.67207 9.942471,-8.70032 17.318381,-16.52155 l 1.341522,-5.8281 -0.837807,-2.04462 0.0125,-0.0134 -0.01942,-0.004 -0.0073,-0.0185 -0.0125,0.0134 -2.133587,-0.57469 -5.613751,2.06213 c -6.834036,8.29886 -5.934668,7.66543 -14.218173,19.25449 -0.866989,1.57893 -2.326356,3.98668 -2.18017,5.33075 l -2.167214,3.77557 -6.57e-4,7.5e-4 3.95e-4,3.8e-4 -6.55e-4,7.6e-4 c -2.8e-4,9.6e-4 -0.0013,0.002 -0.002,0.004 -0.002,0.004 -6.07e-4,0.005 -0.0061,0.008 -6.64e-4,7.4e-4 -0.0013,0.002 -0.0023,0.003 -1.6e-4,4.6e-4 0.0013,-0.002 0.0013,-0.002 2.84e-4,7.4e-4 -0.001,0.003 -0.002,0.004 -0.0023,0.004 -0.0061,0.008 -0.0085,0.0112 -4.46e-4,4.7e-4 8.31e-4,-5.8e-4 0.0032,-0.002 l -0.002,0.004 c -0.0023,0.004 -0.0051,0.005 -0.0056,0.0109 l -2.69e-4,9.5e-4 c -1.26e-4,6e-4 -5.5e-4,8.5e-4 -3.6e-5,0.002 3.6e-4,0.004 -0.0014,0.007 -0.0052,0.013 -3.5e-5,0.002 -0.0023,0.004 -0.0014,0.005 -0.0012,0.004 -0.0051,0.005 -0.0051,0.01 z m 0.01708,0.01 0.0032,-0.005 c -0.0013,0.002 -0.0032,0.002 -0.0034,0.004 6.05e-4,4e-5 -2.31e-4,9.7e-4 1.33e-4,9.9e-4 z"
       id="path3708"
       inkscape:connector-curvature="0" />
    <path
       inkscape:connector-curvature="0"
       id="path3710"
       d="m 13.665535,171.59574 9.96e-4,-6e-5 c -5.88e-4,1.1e-4 8.08e-4,-5.6e-4 0.0018,-0.002 8.06e-4,-6e-4 0.0018,-0.002 0.0032,-0.003 l -2.76e-4,-4.7e-4 -0.0056,0.005 z m 0.09192,-0.0425 c 0.0043,-0.003 0.0096,-0.003 0.0144,-0.005 0.0051,-0.002 0.0074,-0.004 0.01141,-0.003 5.56e-4,-1.3e-4 8.46e-4,2.7e-4 9.92e-4,1.4e-4 0.0018,-0.002 0.0036,-0.001 0.0049,-0.003 0.0018,-0.002 0.0052,-0.002 0.0043,-0.004 0.0018,-0.002 0.0049,-0.003 0.0088,2e-4 9.71e-4,-2.1e-4 0.0018,-0.002 0.0051,-0.002 9.32e-4,-3.9e-4 0.0052,-0.002 0.0057,-0.002 9.48e-4,-3.5e-4 0.0018,-0.002 0.0043,-0.003 0.0018,-0.002 0.0049,-0.003 0.007,-0.003 0,0 9.94e-4,-7e-5 9.94e-4,-7e-5 l 0.0056,-0.005 4.022235,-1.67864 c 1.314981,0.31348 3.886644,-0.83254 5.561823,-1.49474 12.535858,-6.76553 11.794677,-5.95264 20.884773,-11.69249 l 2.749555,-5.31097 -0.302684,-2.18878 0.01544,-0.01 -0.01781,-0.009 -0.0025,-0.0197 -0.01544,0.01 -1.923475,-1.08752 -5.950305,0.60037 c -8.684117,6.33729 -7.655419,5.94758 -18.562126,15.1109 -1.232611,1.31354 -3.245205,3.28241 -3.438067,4.62058 l -3.038536,3.11754 -8.23e-4,5.6e-4 2.88e-4,4.7e-4 -8.24e-4,5.7e-4 c -5.1e-4,8.6e-4 -0.0018,0.002 -0.0029,0.003 -0.0029,0.003 -0.0018,0.005 -0.0079,0.006 -8.27e-4,5.5e-4 -0.0018,0.002 -0.003,0.002 -2.7e-4,4.1e-4 0.0018,-0.002 0.0018,-0.002 9.1e-5,7.9e-4 -0.0017,0.003 -0.0029,0.003 -0.0032,0.003 -0.0079,0.006 -0.01102,0.009 -5.49e-4,3.4e-4 9.49e-4,-3.6e-4 0.0036,-10e-4 l -0.0029,0.003 c -0.0032,0.003 -0.0062,0.004 -0.0081,0.009 l -4.97e-4,8.5e-4 c -2.71e-4,5.5e-4 -7.44e-4,6.9e-4 -5.32e-4,0.002 -6.47e-4,0.004 -0.0031,0.006 -0.0083,0.0113 -5.31e-4,0.002 -0.0032,0.003 -0.0026,0.004 -0.0022,0.004 -0.0062,0.004 -0.0074,0.008 z m 0.01405,0.0139 0.0043,-0.004 c -0.0018,0.002 -0.0036,0.001 -0.0043,0.003 5.76e-4,1.9e-4 -4.65e-4,8.9e-4 -1.17e-4,0.001 z"
       style="fill:#ffffff" />
    <path
       style="fill:#ffffff"
       d="m 2.5703671,143.30597 9.448e-4,3.2e-4 c -5.858e-4,-1.2e-4 9.599e-4,-2.2e-4 0.00249,-0.002 9.733e-4,-2.5e-4 0.00249,-0.002 0.00404,-0.001 l -7.72e-5,-5.4e-4 -0.00711,0.003 z m 0.1011675,-0.005 c 0.0051,-0.001 0.010017,8.8e-4 0.015216,8.5e-4 0.00548,7e-5 0.00828,-4.7e-4 0.011698,0.002 5.645e-4,8e-5 6.82e-4,5.6e-4 8.665e-4,5e-4 0.00249,-0.002 0.00371,4.4e-4 0.00568,-9.6e-4 0.00249,-0.002 0.00557,1e-4 0.00548,-0.002 0.00249,-0.002 0.00568,-9.6e-4 0.00806,0.004 9.779e-4,1.8e-4 0.00249,-0.002 0.00548,7e-5 0.00101,-1e-5 0.00557,1.2e-4 0.00603,3.1e-4 0.00101,3e-5 0.00249,-0.002 0.0051,-10e-4 0.00249,-0.002 0.00568,-9.7e-4 0.0077,-5.8e-4 0,0 9.467e-4,3.1e-4 9.467e-4,3.1e-4 l 0.00711,-0.003 4.3583161,-0.0358 c 1.0992972,0.78676 3.9133031,0.69655 5.7145231,0.71579 14.162406,-1.53178 13.169171,-1.05889 23.753596,-2.94188 l 4.551246,-3.87977 0.546109,-2.14106 0.01812,-0.004 -0.01308,-0.0151 0.0052,-0.0192 -0.01812,0.004 -1.37051,-1.73325 -5.736575,-1.69065 c -10.434064,2.5895 -9.334364,2.61702 -22.893505,6.98423 -1.637317,0.75093 -4.2443126,1.81421 -4.9281351,2.98051 l -3.9906935,1.73959 -9.726e-4,2e-4 8.89e-5,5.4e-4 -9.792e-4,2.3e-4 c -7.967e-4,6e-4 -0.00249,0.002 -0.00375,0.001 -0.00375,0.001 -0.00364,0.004 -0.00953,0.002 -9.726e-4,1.9e-4 -0.00249,0.002 -0.00347,3.6e-4 -4.052e-4,2.8e-4 0.00249,-0.002 0.00249,-0.002 -2.135e-4,7.6e-4 -0.00278,0.003 -0.00375,0.001 -0.00404,10e-4 -0.00953,0.002 -0.013672,0.005 -6.378e-4,1.1e-4 0.00101,3e-5 0.00371,4.4e-4 l -0.00375,0.001 c -0.00404,0.001 -0.00731,0.002 -0.010862,0.005 l -7.822e-4,6.1e-4 c -4.577e-4,4e-4 -9.479e-4,3.5e-4 -0.00127,0.002 -0.00215,0.004 -0.00509,0.004 -0.011873,0.007 -0.00127,0.002 -0.00404,10e-4 -0.00384,0.002 -0.00346,0.002 -0.00731,0.002 -0.0098,0.004 z m 0.00777,0.0182 0.00548,-0.002 c -0.00249,0.002 -0.00371,-4.4e-4 -0.0051,0.001 4.619e-4,3.9e-4 -7.666e-4,6.5e-4 -4.865e-4,8.8e-4 z"
       id="path3712"
       inkscape:connector-curvature="0" />
    <path
       inkscape:connector-curvature="0"
       id="path3714"
       d="m 0.82599445,118.34901 8.4706e-4,5.3e-4 c -5.4306e-4,-2.5e-4 9.8478e-4,10e-6 0.00288,-0.001 0.001005,-2e-5 0.00288,-0.001 0.004162,-5e-5 l 4.784e-5,-5.5e-4 -0.007606,0.001 z m 0.0996465,0.0182 c 0.005194,1.9e-4 0.009553,0.003 0.0146223,0.004 0.00532,10e-4 0.008169,10e-4 0.0109348,0.005 5.3144e-4,2e-4 5.365e-4,7e-4 7.2982e-4,6.8e-4 0.00288,-0.001 0.003512,10e-4 0.005749,3.6e-4 0.00288,-0.001 0.005401,10e-4 0.005792,-7e-4 0.00288,-10e-4 0.005749,3.6e-4 0.006937,0.006 9.1118e-4,4e-4 0.00288,-10e-4 0.00532,0.001 9.8572e-4,2.2e-4 0.005396,0.001 0.005801,0.002 9.7661e-4,2.6e-4 0.00288,-10e-4 0.005194,1.8e-4 0.00288,-10e-4 0.005752,3.5e-4 0.00763,0.001 0,0 8.5118e-4,5.2e-4 8.5118e-4,5.2e-4 l 0.007606,-10e-4 4.251876,0.95799 c 0.8911638,1.0165 3.6517299,1.56971 5.401206,1.99878 14.138975,1.73478 13.064129,1.96897 23.799209,2.54669 l 5.315414,-2.74095 1.019497,-1.96036 0.01855,2.3e-4 -0.0093,-0.0177 0.0094,-0.0175 -0.01855,-2.3e-4 -0.939629,-1.99989 -5.200599,-2.95303 c -10.74962,0.14447 -9.685105,0.42179 -23.882606,1.58531 -1.7653325,0.35819 -4.5460029,0.79962 -5.4775359,1.77948 l -4.2820538,0.78474 -9.926e-4,-2e-5 -3.64e-5,5.4e-4 -0.00101,0 c -9.124e-4,4.1e-4 -0.00288,0.001 -0.00388,1.2e-4 -0.003879,1.2e-4 -0.004456,0.003 -0.009735,-2.2e-4 -9.9031e-4,-4e-5 -0.00288,0.001 -0.003461,-4.4e-4 -4.5833e-4,1.8e-4 0.00288,-0.001 0.00288,-0.001 -3.8102e-4,6.9e-4 -0.00339,0.002 -0.003879,1.2e-4 -0.004162,5e-5 -0.009735,-2.3e-4 -0.0144516,0.002 -6.4609e-4,-4e-5 9.7661e-4,2.6e-4 0.003512,0.001 l -0.003879,1.1e-4 c -0.004162,6e-5 -0.007573,2.9e-4 -0.0117154,0.002 l -9.006e-4,4.1e-4 c -5.3679e-4,2.9e-4 -0.001003,1.3e-4 -0.001692,0.002 -0.003005,0.003 -0.005867,0.003 -0.0131555,0.004 -0.001692,0.002 -0.004162,6e-5 -0.004195,0.001 -0.003825,0.001 -0.007573,2.8e-4 -0.0104536,0.002 z m 0.00342,0.0195 0.005792,-7e-4 c -0.00288,0.001 -0.003512,-0.001 -0.005194,-1.8e-4 3.6091e-4,4.8e-4 -8.9451e-4,4.5e-4 -6.7417e-4,7.4e-4 z"
       style="fill:#ffffff" />
    <path
       style="fill:#ffffff"
       d="m 2.4508857,92.52338 7.417e-4,6.7e-4 c -4.912e-4,-3.4e-4 9.68e-4,1.9e-4 0.00301,-4.8e-4 9.98e-4,1.6e-4 0.00301,-4.8e-4 0.00411,6.8e-4 l 1.429e-4,-5.4e-4 -0.00767,-3.4e-4 z m 0.094947,0.0353 c 0.00508,0.001 0.00888,0.005 0.013701,0.006 0.00506,0.002 0.00787,0.002 0.0099,0.007 4.885e-4,2.9e-4 4.063e-4,7.8e-4 6.002e-4,7.9e-4 0.00301,-4.8e-4 0.00328,0.002 0.0056,0.001 0.00301,-4.8e-4 0.00514,0.002 0.00582,3.2e-4 0.00301,-4.8e-4 0.0056,10e-4 0.00579,0.007 8.275e-4,5.5e-4 0.00301,-4.8e-4 0.00506,0.002 9.323e-4,3.9e-4 0.00514,0.002 0.00536,0.003 9.163e-4,4.3e-4 0.00301,-4.8e-4 0.00508,10e-4 0.00301,-4.8e-4 0.0056,0.001 0.00734,0.002 0,0 7.474e-4,6.6e-4 7.474e-4,6.6e-4 l 0.00767,3.4e-4 4.0197331,1.68462 c 0.7002915,1.156299 3.3221274,2.182339 4.9700016,2.909849 13.619974,4.173301 12.52076,4.216501 22.990701,6.657001 l 5.711881,-1.77224 1.345665,-1.75259 0.01823,0.003 -0.0061,-0.0191 0.01231,-0.0156 -0.01823,-0.003 -0.576563,-2.133081 -4.606097,-3.814509 c -10.61017,-1.7319 -9.610309,-1.27324 -23.793221,-2.602824 -1.800744,0.04492 -4.6157894,-0.0052 -5.7038908,0.797234 l -4.3532881,0.0262 -9.739e-4,-1.9e-4 -1.3e-4,5.2e-4 -9.945e-4,-1.7e-4 c -9.699e-4,2.4e-4 -0.00301,4.8e-4 -0.00384,-5.6e-4 -0.00384,-5.6e-4 -0.00491,0.002 -0.00955,-0.002 -9.682e-4,-2.1e-4 -0.00301,4.9e-4 -0.00333,-0.001 -4.827e-4,9e-5 0.00301,-4.9e-4 0.00301,-4.9e-4 -4.954e-4,6.2e-4 -0.00369,0.001 -0.00384,-5.5e-4 -0.00411,-6.8e-4 -0.00954,-0.002 -0.014579,-5.5e-4 -6.292e-4,-1.6e-4 9.163e-4,4.2e-4 0.00328,0.002 l -0.00384,-5.7e-4 c -0.00411,-6.6e-4 -0.0075,-0.001 -0.011884,-7e-5 l -9.583e-4,2.5e-4 c -5.792e-4,1.9e-4 -0.00101,-5e-5 -0.00201,0.002 -0.00348,0.002 -0.0063,0.002 -0.013652,0.002 -0.00201,0.002 -0.00411,-6.7e-4 -0.0043,2.5e-4 -0.00394,3.2e-4 -0.0075,-0.001 -0.010643,1.5e-4 z m -3.22e-5,0.0198 0.00582,3.2e-4 c -0.00301,4.8e-4 -0.00328,-0.002 -0.00508,-0.001 2.716e-4,5.4e-4 -9.593e-4,2.9e-4 -7.928e-4,6.2e-4 z"
       id="path3716"
       inkscape:connector-curvature="0" />
    <path
       inkscape:connector-curvature="0"
       id="path3718"
       d="m 10.829678,72.316252 6.34e-4,7.72e-4 c -4.35e-4,-4.09e-4 9.29e-4,3.31e-4 0.003,-2.9e-5 9.64e-4,3.06e-4 0.003,-2.9e-5 0.004,0.0013 l 2.21e-4,-5.13e-4 -0.0075,-0.0015 z m 0.08868,0.04896 c 0.0049,0.0017 0.008,0.0063 0.01266,0.008 0.0047,0.0027 0.0075,0.0031 0.0088,0.0084 4.4e-4,3.59e-4 2.86e-4,8.32e-4 4.76e-4,8.7e-4 0.003,-2.9e-5 0.003,0.0025 0.0054,0.0018 0.003,-2.9e-5 0.0048,0.0027 0.0057,0.0012 0.003,-2.9e-5 0.0054,0.0018 0.0047,0.0078 7.37e-4,6.66e-4 0.003,-2.9e-5 0.0047,0.0027 8.65e-4,5.24e-4 0.0048,0.0027 0.0049,0.0038 8.43e-4,5.61e-4 0.003,-2.9e-5 0.0049,0.0017 0.003,-2.9e-5 0.0054,0.0018 0.007,0.0031 0,0 6.42e-4,7.64e-4 6.42e-4,7.64e-4 l 0.0075,0.0015 3.726113,2.261036 c 0.521431,1.247215 2.962522,2.650018 4.484565,3.613421 12.852256,6.14326 11.758755,6.023287 21.75215,9.986588 l 5.911281,-0.90729 1.590249,-1.534111 0.01758,0.0057 -0.0032,-0.01979 0.01448,-0.01361 -0.01759,-0.0057 -0.254489,-2.194924 -3.990769,-4.454254 c -10.236961,-3.283262 -9.316,-2.681662 -23.145899,-6.095849 -1.787559,-0.222108 -4.564179,-0.688337 -5.759066,-0.05579 l -4.309217,-0.618429 -9.35e-4,-3.32e-4 -2.05e-4,4.95e-4 -9.58e-4,-3.15e-4 c -9.95e-4,9.3e-5 -0.003,2.9e-5 -0.0037,-0.0011 -0.0037,-0.0011 -0.0051,0.0013 -0.0091,-0.0034 -9.27e-4,-3.51e-4 -0.003,3.9e-5 -0.0031,-0.0015 -4.91e-4,1.8e-5 0.003,-3.9e-5 0.003,-3.9e-5 -5.82e-4,5.4e-4 -0.0038,4.43e-4 -0.0037,-0.0011 -0.004,-0.0013 -0.0091,-0.0034 -0.01434,-0.0027 -5.99e-4,-2.52e-4 8.44e-4,5.51e-4 0.003,0.0025 l -0.0037,-0.0011 c -0.004,-0.0013 -0.0073,-0.0021 -0.01174,-0.0018 l -9.85e-4,1.05e-4 c -6.01e-4,1.03e-4 -9.92e-4,-1.99e-4 -0.0023,0.0017 -0.0037,0.0015 -0.0065,0.001 -0.0138,-4.3e-5 -0.0023,0.0017 -0.004,-0.0013 -0.0043,-3.89e-4 -0.0039,-2.67e-4 -0.0073,-0.0021 -0.01055,-0.0014 z m -0.003,0.01958 0.0057,0.0012 c -0.003,2.9e-5 -0.003,-0.0025 -0.0049,-0.0017 1.88e-4,5.75e-4 -9.92e-4,1.45e-4 -8.76e-4,4.96e-4 z"
       style="fill:#ffffff" />
    <path
       style="fill:#ffffff"
       d="m 25.948341,48.378191 3.67e-4,9.29e-4 c -2.89e-4,-5.23e-4 7.84e-4,5.99e-4 0.0029,8.91e-4 8.24e-4,5.86e-4 0.0029,8.9e-4 0.0034,0.0025 l 3.68e-4,-4.2e-4 -0.0067,-0.0037 z m 0.06944,0.07375 c 0.0041,0.0031 0.0057,0.0084 0.0096,0.01149 0.0036,0.004 0.0062,0.0052 0.0058,0.01069 3.09e-4,4.76e-4 1.7e-5,8.79e-4 1.87e-4,9.74e-4 0.0029,8.9e-4 0.0021,0.0033 0.0046,0.0034 0.0029,8.91e-4 0.0037,0.004 0.0051,0.0029 0.0029,8.91e-4 0.0046,0.0034 0.0021,0.0089 4.98e-4,8.6e-4 0.0029,8.91e-4 0.0036,0.004 6.63e-4,7.64e-4 0.0037,0.004 0.0035,0.0051 6.31e-4,7.92e-4 0.0029,8.9e-4 0.0041,0.0031 0.0029,8.9e-4 0.0046,0.0034 0.0057,0.0051 0,0 3.77e-4,9.24e-4 3.77e-4,9.24e-4 l 0.0067,0.0037 2.855263,3.292973 c 0.114674,1.346954 2.009262,3.429577 3.163395,4.812595 10.355212,9.782112 9.350908,9.33321 17.651674,16.164973 l 5.905289,0.945508 1.983475,-0.973763 0.01499,0.01081 0.003,-0.01982 0.01795,-0.0085 -0.015,-0.01081 0.429521,-2.167479 -2.435943,-5.461941 C 46.902026,58.837813 47.594658,59.692419 35.473438,52.209185 33.839645,51.45062 31.338974,50.15693 30.007828,50.393404 l -3.913134,-1.907666 -7.89e-4,-6.02e-4 -3.46e-4,4.08e-4 -8.16e-4,-5.93e-4 c -9.76e-4,-2.16e-4 -0.0029,-8.9e-4 -0.0032,-0.0022 -0.0032,-0.0022 -0.0053,-3.24e-4 -0.0076,-0.006 -7.75e-4,-6.18e-4 -0.0029,-8.81e-4 -0.0025,-0.0024 -4.73e-4,-1.33e-4 0.0029,8.81e-4 0.0029,8.81e-4 -7.2e-4,3.36e-4 -0.0038,-7.41e-4 -0.0032,-0.0022 -0.0034,-0.0025 -0.0076,-0.006 -0.01283,-0.007 -4.93e-4,-4.23e-4 6.35e-4,7.83e-4 0.0021,0.0033 l -0.0032,-0.0022 c -0.0034,-0.0025 -0.0063,-0.0042 -0.01063,-0.0053 l -9.7e-4,-2.01e-4 c -6.04e-4,-8.6e-5 -8.84e-4,-4.93e-4 -0.0027,9.14e-4 -0.004,2.96e-4 -0.0065,-10e-4 -0.01312,-0.0043 -0.0027,9.14e-4 -0.0034,-0.0025 -0.004,-0.0017 -0.0036,-0.0014 -0.0063,-0.0042 -0.0096,-0.0046 z m -0.0088,0.01772 0.0051,0.0029 c -0.0029,-8.91e-4 -0.0021,-0.0033 -0.0041,-0.0031 3e-6,6.05e-4 -9.89e-4,-1.65e-4 -9.86e-4,2.05e-4 z"
       id="path3720"
       inkscape:connector-curvature="0" />
    <path
       inkscape:connector-curvature="0"
       id="path3722"
       d="m 47.368101,30.391941 4.1e-5,9.98e-4 c -10e-5,-5.89e-4 5.42e-4,8.24e-4 0.0025,0.0018 5.85e-4,8.24e-4 0.0025,0.0018 0.0024,0.0035 l 4.86e-4,-2.75e-4 -0.0051,-0.0057 z m 0.04125,0.09252 c 0.0028,0.0043 0.0026,0.0098 0.0053,0.01402 0.0021,0.0049 0.0042,0.007 0.0019,0.012 1.36e-4,5.51e-4 -2.73e-4,8.35e-4 -1.44e-4,9.81e-4 0.0025,0.0018 8.55e-4,0.0038 0.0032,0.0047 0.0025,0.0018 0.0022,0.005 0.0038,0.0045 0.0025,0.0018 0.0032,0.0047 -9.5e-4,0.0091 1.88e-4,9.77e-4 0.0025,0.0018 0.0021,0.0049 3.74e-4,9.4e-4 0.0022,0.005 0.0016,0.0059 3.34e-4,9.55e-4 0.0025,0.0018 0.0028,0.0043 0.0025,0.0018 0.0032,0.0047 0.0037,0.0067 0,0 5.1e-5,9.97e-4 5.1e-5,9.97e-4 l 0.0051,0.0057 1.610185,4.050124 c -0.335743,1.30947 0.76644,3.900218 1.400169,5.586382 6.551874,12.648837 5.751679,11.893968 11.336483,21.080136 l 5.263551,2.83927 2.193602,-0.265508 0.01059,0.01514 0.0094,-0.01772 0.01975,-0.0021 -0.0106,-0.01515 1.119998,-1.904746 -0.499328,-5.959639 C 63.702739,47.174082 64.074946,48.209239 55.097974,37.148646 53.80555,35.893919 51.871098,33.84822 50.536402,33.632681 l -3.065578,-3.090961 -5.47e-4,-8.28e-4 -4.61e-4,2.71e-4 -5.75e-4,-8.29e-4 c -8.51e-4,-5.25e-4 -0.0025,-0.0018 -0.0023,-0.0032 -0.0023,-0.0032 -0.0049,-0.002 -0.0052,-0.0082 -5.28e-4,-8.4e-4 -0.0025,-0.0018 -0.0016,-0.0031 -4.02e-4,-2.81e-4 0.0025,0.0018 0.0025,0.0018 -7.9e-4,8.1e-5 -0.0034,-0.0019 -0.0023,-0.0032 -0.0024,-0.0035 -0.0052,-0.0082 -0.0098,-0.01083 -3.26e-4,-5.63e-4 3.42e-4,9.48e-4 8.56e-4,0.0038 l -0.0023,-0.0032 c -0.0024,-0.0035 -0.0045,-0.006 -0.0083,-0.0085 l -8.5e-4,-5.09e-4 c -5.41e-4,-2.81e-4 -6.71e-4,-7.58e-4 -0.0028,-2.4e-5 -0.0038,-0.001 -0.0058,-0.0031 -0.01097,-0.0083 -0.0028,-2.4e-5 -0.0024,-0.0035 -0.0032,-0.0029 -0.0029,-0.0025 -0.0045,-0.006 -0.0075,-0.0075 z m -0.01414,0.01383 0.0038,0.0045 c -0.0025,-0.0018 -8.56e-4,-0.0038 -0.0028,-0.0043 -1.97e-4,5.71e-4 -8.8e-4,-4.83e-4 -9.94e-4,-1.31e-4 z"
       style="fill:#ffffff" />
  </g>
</svg>
